<svg width="160" height="80" viewBox="0 0 160 80" fill="none" xmlns="http://www.w3.org/2000/svg">
<g clip-path="url(#clip0_308_1994)">
<rect width="160" height="80" fill="white"/>
<path fill-rule="evenodd" clip-rule="evenodd" d="M111.077 40.4616C111.077 31.7095 106.838 24.8035 98.7351 24.8035C90.5983 24.8035 85.6752 31.7094 85.6752 40.3932C85.6752 50.6838 91.4872 55.8804 99.8291 55.8804C103.897 55.8804 106.974 54.9573 109.299 53.6582V46.8206C106.974 47.983 104.308 48.7009 100.923 48.7009C97.6068 48.7009 94.6667 47.5385 94.2906 43.5043H111.009C111.009 43.0599 111.077 41.2821 111.077 40.4616ZM94.1881 37.2137C94.1881 33.3505 96.547 31.7436 98.7009 31.7436C100.786 31.7436 103.009 33.3505 103.009 37.2137H94.1881Z" fill="#FFBB11"/>
<path fill-rule="evenodd" clip-rule="evenodd" d="M76.0513 22.7863L84.6325 20.9402V14L76.0513 15.812V22.7863Z" fill="#FFBB11"/>
<path d="M84.6325 25.3846H76.0513V55.2992H84.6325V25.3846Z" fill="#FFBB11"/>
<path fill-rule="evenodd" clip-rule="evenodd" d="M66.8547 27.9145L66.3077 25.3846H58.9231V55.2992H67.4701V35.0257C69.4872 32.3932 72.906 32.8718 73.9658 33.2479V25.3846C72.8718 24.9744 68.8718 24.2222 66.8547 27.9145Z" fill="#FFBB11"/>
<path fill-rule="evenodd" clip-rule="evenodd" d="M49.7607 17.9658L41.4188 19.7436L41.3846 47.1282C41.3846 52.188 45.1795 55.9145 50.2393 55.9145C53.0428 55.9145 55.094 55.4017 56.2223 54.7863V47.8462C55.1282 48.2906 49.7265 49.8633 49.7265 44.8034V32.6667H56.2223V25.3846H49.7265L49.7607 17.9658Z" fill="#FFBB11"/>
</g>
<defs>
<clipPath id="clip0_308_1994">
<rect width="160" height="80" fill="white"/>
</clipPath>
</defs>
</svg>
